<svg xmlns="http://www.w3.org/2000/svg" version="1.1" xmlns:xlink="http://www.w3.org/1999/xlink" xmlns:svgjs="http://svgjs.dev/svgjs" width="1500" height="511" viewBox="0 0 1500 511"><g transform="matrix(1,0,0,1,-0.9090909090909918,-0.20654655722498205)"><svg viewBox="0 0 396 135" data-background-color="#dedede" preserveAspectRatio="xMidYMid meet" height="511" width="1500" xmlns="http://www.w3.org/2000/svg" xmlns:xlink="http://www.w3.org/1999/xlink"><g id="tight-bounds" transform="matrix(1,0,0,1,0.2400000000000091,0.05456709437450513)"><svg viewBox="0 0 395.52 134.89069975414336" height="134.89069975414336" width="395.52"><g><svg viewBox="0 0 654.9509957451188 223.36872502207734" height="134.89069975414336" width="395.52"><g transform="matrix(1,0,0,1,259.4309957451188,40.87857258206043)"><svg viewBox="0 0 395.52 141.61157985795649" height="141.61157985795649" width="395.52"><g id="textblocktransform"><svg viewBox="0 0 395.52 141.61157985795649" height="141.61157985795649" width="395.52" id="textblock"><g><svg viewBox="0 0 395.52 76.37851946627673" height="76.37851946627673" width="395.52"><g transform="matrix(1,0,0,1,0,0)"><svg width="395.52" viewBox="3.98 -38.57 267.12 51.58" height="76.37851946627673" data-palette-color="#ec8d3a"><path d="M13.67-15.33L13.67 0 3.98 0 3.98-35.16 13.67-35.16 13.67-19.8 26.51-19.8 26.51-35.16 36.21-35.16 36.21 0 26.51 0 26.51-15.33 13.67-15.33ZM70.21-16.41L78.9-12.28Q78.02-10.45 76.87-8.76 75.71-7.08 74.27-5.62L74.27-5.62 77.44-2.61 71.9 1.37 69.06-1.64Q66.84-0.44 64.45 0.13 62.06 0.71 59.54 0.71L59.54 0.71Q57.69 0.71 55.67 0.55 53.66 0.39 51.69-0.04 49.73-0.46 47.96-1.25 46.19-2.03 44.86-3.25 43.53-4.47 42.73-6.2 41.94-7.93 41.94-10.3L41.94-10.3Q41.94-12.16 42.64-13.75 43.33-15.33 44.52-16.56 45.7-17.8 47.25-18.64 48.8-19.48 50.53-19.85L50.53-19.85Q49.68-20.43 48.86-21.28 48.04-22.12 47.4-23.11 46.75-24.1 46.35-25.17 45.94-26.25 45.94-27.32L45.94-27.32Q45.94-29.66 46.93-31.27 47.92-32.89 49.51-33.87 51.1-34.86 53.09-35.3 55.08-35.74 57.08-35.74L57.08-35.74Q59.06-35.74 61.08-35.3 63.11-34.86 64.73-33.86 66.35-32.86 67.38-31.26 68.41-29.66 68.41-27.32L68.41-27.32Q68.41-25.63 67.75-24.28 67.09-22.92 66.01-21.84 64.94-20.75 63.6-19.9 62.25-19.04 60.91-18.36L60.91-18.36 69.09-10.57Q69.63-11.96 69.92-13.44 70.21-14.92 70.21-16.41L70.21-16.41ZM60.76-26.78L60.76-26.78Q60.76-27.64 60.53-28.42 60.3-29.2 59.85-29.79 59.4-30.37 58.7-30.73 58.01-31.08 57.08-31.08L57.08-31.08Q56.08-31.08 55.41-30.75 54.73-30.42 54.31-29.83 53.88-29.25 53.7-28.47 53.51-27.69 53.51-26.78L53.51-26.78Q53.51-26.1 53.87-25.37 54.22-24.63 54.75-23.95 55.27-23.27 55.86-22.66 56.44-22.05 56.93-21.61L56.93-21.61Q57.66-22 58.36-22.53 59.06-23.07 59.58-23.72 60.1-24.37 60.43-25.13 60.76-25.9 60.76-26.78ZM65.4-5.32L65.4-5.32 54.69-16.11Q53-15.19 52.28-13.67 51.56-12.16 51.56-10.3L51.56-10.3Q51.56-8.64 52.23-7.36 52.9-6.08 54.03-5.2 55.15-4.32 56.58-3.87 58.01-3.42 59.54-3.42L59.54-3.42Q61.15-3.42 62.64-3.87 64.13-4.32 65.4-5.32ZM93.21-15.33L93.21 0 83.52 0 83.52-35.16 93.21-35.16 93.21-19.8 106.05-19.8 106.05-35.16 115.74-35.16 115.74 0 106.05 0 106.05-15.33 93.21-15.33ZM166.66-10.74L166.66-10.74Q166.66-8.47 166.09-6.74 165.52-5 164.48-3.74 163.44-2.47 162.03-1.61 160.61-0.76 158.94-0.24 157.27 0.27 155.4 0.49 153.53 0.71 151.6 0.71L151.6 0.71Q149.06 0.71 146.91 0.33 144.77-0.05 142.87-0.87 140.98-1.68 139.24-2.98 137.49-4.27 135.76-6.13L135.76-6.13 140.74-11.18Q141.42-9.5 142.62-8.07 143.81-6.64 145.24-5.62 146.67-4.59 148.21-4 149.75-3.42 151.11-3.42L151.11-3.42Q152.72-3.42 154.14-3.65 155.56-3.88 156.61-4.42 157.66-4.96 158.25-5.85 158.85-6.74 158.85-8.08L158.85-8.08Q158.85-9.11 158.39-9.84 157.92-10.57 157.18-11.1 156.44-11.62 155.48-11.99 154.53-12.35 153.54-12.61 152.55-12.87 151.6-13.07 150.65-13.28 149.92-13.5L149.92-13.5Q148.48-13.92 146.91-14.39 145.35-14.87 143.84-15.48 142.32-16.09 140.97-16.88 139.61-17.68 138.59-18.76 137.56-19.85 136.95-21.28 136.34-22.71 136.34-24.56L136.34-24.56Q136.34-26.78 136.89-28.5 137.44-30.22 138.44-31.49 139.44-32.76 140.81-33.63 142.18-34.5 143.81-35.02 145.45-35.55 147.29-35.78 149.14-36.01 151.06-36.01L151.06-36.01Q153.7-36.01 155.86-35.52 158.02-35.03 159.85-34.13 161.68-33.23 163.21-31.97 164.74-30.71 166.08-29.17L166.08-29.17 161.1-24.12Q160.51-25.88 159.47-27.29 158.44-28.71 157.17-29.72 155.9-30.74 154.51-31.29 153.12-31.84 151.82-31.84L151.82-31.84Q150.14-31.84 148.72-31.6 147.3-31.37 146.29-30.85 145.28-30.32 144.72-29.43 144.16-28.54 144.16-27.22L144.16-27.22Q144.16-26.17 144.57-25.44 144.99-24.71 145.68-24.19 146.38-23.68 147.26-23.35 148.13-23.02 149.07-22.78 150.01-22.53 150.93-22.35 151.85-22.17 152.6-21.95L152.6-21.95Q154.07-21.53 155.68-21.07 157.29-20.61 158.85-19.98 160.41-19.36 161.83-18.55 163.25-17.75 164.32-16.64 165.4-15.53 166.03-14.07 166.66-12.62 166.66-10.74ZM200.7-16.16L200.7-16.16Q200.7-13.31 200-10.21 199.3-7.1 198.06-4.13 196.81-1.15 195.08 1.48 193.35 4.1 191.27 6.01L191.27 6.01 188.17 4.32Q188.83 3.1 189.42 1.59 190 0.07 190.48-1.62 190.95-3.32 191.33-5.13 191.71-6.93 191.97-8.7 192.22-10.47 192.36-12.15 192.49-13.82 192.49-15.26L192.49-15.26Q192.49-16.21 192.42-17.3 192.35-18.38 192.11-19.47 191.88-20.56 191.49-21.56 191.1-22.56 190.45-23.32 189.81-24.07 188.89-24.54 187.98-25 186.73-25L186.73-25Q185.51-25 184.56-24.45 183.61-23.9 182.87-23.01 182.14-22.12 181.62-20.97 181.09-19.82 180.76-18.62 180.43-17.41 180.29-16.24 180.14-15.06 180.14-14.14L180.14-14.14 180.14 0 171.86 0 171.86-38.57 180.11-38.57 180.11-24.05Q181.7-26.37 184.01-27.62 186.32-28.88 189.12-28.88L189.12-28.88Q192.05-28.88 194.23-27.93 196.4-26.98 197.84-25.28 199.28-23.58 199.99-21.25 200.7-18.92 200.7-16.16ZM235.92-14.16L235.92-14.16Q235.92-11.96 235.34-10.03 234.75-8.11 233.71-6.47 232.68-4.83 231.21-3.53 229.75-2.22 228-1.32 226.25-0.42 224.26 0.07 222.28 0.56 220.18 0.56L220.18 0.56Q218.08 0.56 216.1 0.07 214.12-0.42 212.38-1.32 210.63-2.22 209.16-3.53 207.7-4.83 206.66-6.47 205.62-8.11 205.04-10.05 204.45-11.99 204.45-14.16L204.45-14.16Q204.45-16.33 205.04-18.27 205.62-20.21 206.66-21.85 207.7-23.49 209.16-24.79 210.63-26.1 212.38-27 214.12-27.91 216.1-28.39 218.08-28.88 220.18-28.88L220.18-28.88Q222.28-28.88 224.26-28.39 226.25-27.91 228-27 229.75-26.1 231.21-24.79 232.68-23.49 233.71-21.85 234.75-20.21 235.34-18.27 235.92-16.33 235.92-14.16ZM227.52-14.16L227.52-14.16Q227.52-15.33 227.39-16.64 227.26-17.94 226.94-19.2 226.62-20.46 226.07-21.62 225.52-22.78 224.72-23.65 223.91-24.51 222.79-25.04 221.66-25.56 220.18-25.56L220.18-25.56Q218.76-25.56 217.66-25.02 216.56-24.49 215.74-23.6 214.93-22.71 214.38-21.53 213.83-20.36 213.49-19.1 213.14-17.85 213-16.56 212.85-15.28 212.85-14.16L212.85-14.16Q212.85-13.04 213-11.76 213.14-10.47 213.49-9.2 213.83-7.93 214.38-6.77 214.93-5.62 215.74-4.72 216.56-3.83 217.66-3.3 218.76-2.76 220.18-2.76L220.18-2.76Q221.64-2.76 222.76-3.28 223.89-3.81 224.7-4.69 225.52-5.57 226.06-6.71 226.6-7.86 226.93-9.13 227.26-10.4 227.39-11.69 227.52-12.99 227.52-14.16ZM271.1-14.16L271.1-14.16Q271.1-11.08 270.17-8.4 269.25-5.71 267.49-3.72 265.73-1.73 263.19-0.59 260.65 0.56 257.43 0.56L257.43 0.56Q254.96 0.56 252.9-0.4 250.84-1.37 249.37-3.37L249.37-3.37 249.37 13.01 241.12 13.01 241.12-28.2 244.29-28.2 247.96-22.07Q248.49-23.61 249.43-24.87 250.37-26.12 251.61-27.01 252.84-27.91 254.32-28.39 255.79-28.88 257.43-28.88L257.43-28.88Q260.65-28.88 263.19-27.73 265.73-26.59 267.49-24.6 269.25-22.61 270.17-19.92 271.1-17.24 271.1-14.16ZM262.73-14.16L262.73-14.16Q262.73-15.23 262.62-16.44 262.51-17.65 262.24-18.85 261.97-20.04 261.49-21.14 261.02-22.24 260.29-23.08 259.55-23.93 258.52-24.43 257.48-24.93 256.11-24.93L256.11-24.93Q254.69-24.93 253.66-24.44 252.62-23.95 251.87-23.11 251.13-22.27 250.65-21.18 250.18-20.09 249.91-18.9 249.64-17.7 249.53-16.48 249.42-15.26 249.42-14.16L249.42-14.16Q249.42-13.18 249.57-12 249.71-10.82 250.03-9.62 250.35-8.42 250.86-7.3 251.37-6.18 252.12-5.3 252.86-4.42 253.85-3.89 254.84-3.37 256.11-3.37L256.11-3.37Q257.5-3.37 258.53-3.87 259.55-4.37 260.29-5.21 261.02-6.05 261.49-7.15 261.97-8.25 262.24-9.45 262.51-10.64 262.62-11.87 262.73-13.09 262.73-14.16Z" opacity="1" transform="matrix(1,0,0,1,0,0)" fill="#ec8d3a" class="wordmark-text-0" data-fill-palette-color="primary" id="text-0"></path></svg></g></svg></g><g transform="matrix(1,0,0,1,0,94.40965482779748)"><svg viewBox="0 0 206.81646669840757 47.20192503015902" height="47.20192503015902" width="206.81646669840757"><g transform="matrix(1,0,0,1,0,0)"><svg width="206.81646669840757" viewBox="2.75 -36.8 163.63 37.349999999999994" height="47.20192503015902" data-palette-color="#8b9497"><path d="M17.45-21.35Q16.7-21.7 15.63-21.95 14.55-22.2 12.65-22.2 10.75-22.2 9.33-21.58 7.9-20.95 7.23-19.48 6.55-18 6.35-16.48 6.15-14.95 6.15-12.3L6.15-12.3Q6.15-6.65 7.43-4.5 8.7-2.35 13.05-2.35L13.05-2.35Q15.4-2.35 16.85-2.95 18.3-3.55 19-4.98 19.7-6.4 19.9-7.98 20.1-9.55 20.1-11.73 20.1-13.9 20.08-14.83 20.05-15.75 19.9-16.98 19.75-18.2 19.48-18.85 19.2-19.5 18.7-20.25 18.2-21 17.45-21.35ZM13.23-25Q17.1-25 19.25-23.98 21.4-22.95 22.45-20.2 23.5-17.45 23.5-13.1 23.5-8.75 22.58-6.15 21.65-3.55 20.1-2.15L20.1-2.15Q17.1 0.55 13.1 0.55L13.1 0.55Q7.25 0.55 5-2.2 2.75-4.95 2.75-12.25L2.75-12.25Q2.75-15.75 3.7-18.35 4.65-20.95 6.25-22.3L6.25-22.3Q9.35-25 13.23-25ZM48.75-17.6L48.75 0 45.5 0 45.5-17.6Q45.45-20.05 44.12-21.1 42.8-22.15 40.37-22.15 37.95-22.15 35.92-21.2 33.9-20.25 33.55-19.4L33.55-19.4 33.55 0 30.35 0 30.35-18.25 29.5-24.35 31.65-24.35 31.8-24.25 32.75-21.7Q34.5-22.9 35.6-23.5L35.6-23.5Q38.35-25.15 41.6-25.15L41.6-25.15Q48.6-25.15 48.75-17.6L48.75-17.6ZM74.5-16.05L74.5-16.05Q74.5-14.25 74.2-12.3L74.2-12.3 58.5-12.3Q58.7-6.8 60.35-4.73 62-2.65 66.2-2.65L66.2-2.65Q69.34-2.65 73.55-4L73.55-4 73.84-1.5Q72.7-1.05 72.07-0.88 71.45-0.7 70.75-0.48 70.05-0.25 69.7-0.15 69.34-0.05 68.7 0.1 68.05 0.25 67.59 0.3L67.59 0.3Q66.25 0.45 65.3 0.45L65.3 0.45Q60.6 0.45 57.9-2.85 55.2-6.15 55.2-12.05L55.2-12.05Q55.2-15.3 56-17.78 56.8-20.25 57.9-21.58 59-22.9 60.55-23.7L60.55-23.7Q62.85-24.95 65.55-25.05L65.55-25.05Q74.5-25 74.5-16.05ZM71.34-16.85L71.34-16.85Q71.34-19.85 69.84-21.05 68.34-22.25 65.4-22.25 62.45-22.25 60.55-20.68 58.65-19.1 58.6-14.85L58.6-14.85 71.2-14.85Q71.34-16 71.34-16.85ZM102.89-19.2L106.29-19.2 106.29-11.85 109.69-11.85 109.69-9.05 106.29-9.05 106.29 0 102.89 0 102.89-9.05 90.79-9.05 90.79-12.6Q90.79-15.3 92.24-17.7L92.24-17.7 102.19-32.95 104.69-31.35 95.64-17.35Q94.59-15.75 94.39-15.08 94.19-14.4 94.19-12.85L94.19-12.85 94.19-11.85 102.89-11.9 102.89-19.2ZM143.54-14.95L143.54-14.95 143.49-9Q143.49-7.6 143.54-6.4L143.54-6.4 144.64-0.3 144.69-0.05 142.49-0.05 142.29-0.2 141.09-3.1Q136.44 0.1 131.94 0.25L131.94 0.25Q128.79 0.25 127.11-1.43 125.44-3.1 125.44-6.15L125.44-6.15Q125.44-10.35 127.79-11.85 130.14-13.35 134.24-13.35L134.24-13.35Q134.74-13.35 140.29-13.05L140.29-13.05 140.29-16.3Q140.29-19.6 139.06-20.88 137.84-22.15 135.64-22.15 133.44-22.15 127.14-20.8L127.14-20.8 126.69-23.2Q132.89-25.05 135.59-25.05L135.59-25.05Q139.69-25.05 142.09-22.5L142.09-22.5Q143.54-20.95 143.54-14.95ZM140.29-5.3L140.29-10.55 135.04-10.75Q131.04-10.75 129.84-9.95 128.64-9.15 128.64-6.78 128.64-4.4 129.44-3.53 130.24-2.65 132.21-2.65 134.19-2.65 136.86-3.45 139.54-4.25 140.29-5.3L140.29-5.3ZM151.13-5.95L151.13-36.8 154.23-36.8 154.23-5.95 155.48 0.45 153.18 0.45 152.98 0.25 151.13-5.95ZM162.03-5.95L162.03-36.8 165.13-36.8 165.13-5.95 166.38 0.45 164.08 0.45 163.88 0.25 162.03-5.95Z" opacity="1" transform="matrix(1,0,0,1,0,0)" fill="#8b9497" class="slogan-text-1" data-fill-palette-color="secondary" id="text-1"></path></svg></g></svg></g></svg></g></svg></g><g><svg viewBox="0 0 223.36872502207734 223.36872502207734" height="223.36872502207734" width="223.36872502207734"><g><svg></svg></g><g id="icon-0"><svg viewBox="0 0 223.36872502207734 223.36872502207734" height="223.36872502207734" width="223.36872502207734"><g><path d="M0 111.684c0-61.682 50.003-111.684 111.684-111.684 61.682 0 111.684 50.003 111.685 111.684 0 61.682-50.003 111.684-111.685 111.685-61.682 0-111.684-50.003-111.684-111.685zM111.684 216.481c57.877 0 104.796-46.919 104.797-104.797 0-57.877-46.919-104.796-104.797-104.796-57.877 0-104.796 46.919-104.796 104.796 0 57.877 46.919 104.796 104.796 104.797z" data-fill-palette-color="accent" fill="#ec8d3a" stroke="transparent"></path></g><g transform="matrix(1,0,0,1,50.689675927220975,48.092482821071314)"><svg viewBox="0 0 121.98937316763539 127.18375937993471" height="127.18375937993471" width="121.98937316763539"><g><svg xmlns="http://www.w3.org/2000/svg" xmlns:xlink="http://www.w3.org/1999/xlink" version="1.1" x="0" y="0" viewBox="11.299999999999999 9.6 77.5 80.80000000000001" enable-background="new 0 0 100 100" xml:space="preserve" height="127.18375937993471" width="121.98937316763539" class="icon-cg-0" data-fill-palette-color="accent" id="cg-0"><g fill="#ec8d3a" data-fill-palette-color="accent"><g fill="#ec8d3a" data-fill-palette-color="accent"><path d="M81.9 47.2V22.9H32.3v-5.9V9.6h-7.4v0l-13.6 0v7.4l13.6 0v39.7 7.4h7.4v0l56.2 0v-7.4l-56.2 0v-9.6H81.9zM32.3 29.1h42.9v12H32.3V29.1z" fill="#ec8d3a" data-fill-palette-color="accent"></path></g><path d="M35.9 68c-6.2 0-11.2 5-11.2 11.2 0 6.2 5 11.2 11.2 11.2s11.2-5 11.2-11.2C47.1 73 42.1 68 35.9 68zM35.9 82.5c-1.8 0-3.3-1.5-3.3-3.3 0-1.8 1.5-3.3 3.3-3.3s3.3 1.5 3.3 3.3C39.2 81 37.7 82.5 35.9 82.5z" fill="#ec8d3a" data-fill-palette-color="accent"></path><path d="M77.6 68c-6.2 0-11.2 5-11.2 11.2 0 6.2 5 11.2 11.2 11.2 6.2 0 11.2-5 11.2-11.2C88.8 73 83.8 68 77.6 68zM77.6 82.5c-1.8 0-3.3-1.5-3.3-3.3 0-1.8 1.5-3.3 3.3-3.3 1.8 0 3.3 1.5 3.3 3.3C80.9 81 79.4 82.5 77.6 82.5z" fill="#ec8d3a" data-fill-palette-color="accent"></path></g></svg></g></svg></g></svg></g></svg></g></svg></g><defs></defs></svg><rect width="395.52" height="134.89069975414336" fill="none" stroke="none" visibility="hidden"></rect></g></svg></g></svg>